<?xml version="1.0" encoding="utf-8"?>
<svg viewBox="0 0 500 500" xmlns="http://www.w3.org/2000/svg" xmlns:bx="https://boxy-svg.com">
  <defs>
    <bx:grid x="124.454" y="-44.139" width="9.779" height="8.331"/>
  </defs>
  <g style="">
    <rect width="50" height="256.432" style="fill: rgb(5, 0, 0); stroke-miterlimit: 1;" y="166.636"/>
    <rect x="50" y="423.067" width="50" height="25.643" style="fill: rgb(5, 0, 0); stroke-miterlimit: 1;"/>
    <rect x="100" y="448.711" width="50" height="25.643" style="fill: rgb(5, 0, 0); stroke-miterlimit: 1;"/>
    <rect x="150" y="474.357" width="50" height="25.643" style="fill: rgb(5, 0, 0); stroke-miterlimit: 1;"/>
    <rect x="200" y="489.334" width="50" height="10.659" style="fill: rgb(5, 0, 0); stroke-miterlimit: 1;"/>
    <rect x="250" y="474.357" width="50" height="25.643" style="fill: rgb(5, 0, 0); stroke-miterlimit: 1;"/>
    <rect x="300" y="448.711" width="50" height="25.643" style="fill: rgb(5, 0, 0); stroke-miterlimit: 1;"/>
    <rect x="350" y="431.012" width="1.202" height="17.702" style="fill: rgb(5, 0, 0); stroke-miterlimit: 1;"/>
    <rect x="350" y="423.067" width="50" height="25.643" style="fill: rgb(5, 0, 0); stroke-miterlimit: 1;"/>
    <rect x="400" y="397.421" width="50" height="25.643" style="fill: rgb(5, 0, 0); stroke-miterlimit: 1;"/>
    <rect x="450" width="50" height="230.789" style="fill: rgb(5, 0, 0); stroke-miterlimit: 1;" y="166.636"/>
    <rect y="243.565" width="1.202" height="25.643" style="fill: rgb(5, 0, 0); stroke-miterlimit: 1;"/>
    <rect y="144.417" width="0.45" height="22.218" style="fill: rgb(5, 0, 0); stroke-miterlimit: 1;"/>
    <rect y="127.754" width="48.895" height="38.882" style="fill: rgb(5, 0, 0); stroke-miterlimit: 1;"/>
    <rect x="48.895" y="105.536" width="58.674" height="22.218" style="fill: rgb(5, 0, 0); stroke-miterlimit: 1;"/>
    <rect x="107.569" width="88.011" height="27.773" style="fill: rgb(5, 0, 0); stroke-miterlimit: 1;" y="83.318"/>
    <rect x="195.58" width="29.337" height="83.318" style="fill: rgb(5, 0, 0); stroke-miterlimit: 1;"/>
    <rect x="224.917" width="39.116" height="0.3" style="fill: rgb(5, 0, 0); stroke-miterlimit: 1;"/>
    <rect x="224.917" width="48.895" height="16.664" style="fill: rgb(5, 0, 0); stroke-miterlimit: 1;"/>
    <rect x="273.812" width="185.801" height="16.664" style="fill: rgb(5, 0, 0); stroke-miterlimit: 1;"/>
    <rect x="430.276" y="16.664" width="29.337" height="22.218" style="fill: rgb(5, 0, 0); stroke-miterlimit: 1;"/>
    <rect x="400.939" y="38.882" width="29.337" height="16.664" style="fill: rgb(5, 0, 0); stroke-miterlimit: 1;"/>
    <rect x="381.381" y="61.1" width="19.558" height="0.3" style="fill: rgb(5, 0, 0); stroke-miterlimit: 1;"/>
    <rect x="322.707" y="55.545" width="78.232" height="11.109" style="fill: rgb(5, 0, 0); stroke-miterlimit: 1;"/>
    <rect x="322.707" y="61.1" width="0.45" height="5.555" style="fill: rgb(5, 0, 0); stroke-miterlimit: 1;"/>
    <rect x="322.707" y="66.654" width="24.58" height="16.664" style="fill: rgb(5, 0, 0); stroke-miterlimit: 1;"/>
    <rect x="352.044" width="107.569" height="27.773" style="fill: rgb(5, 0, 0); stroke-miterlimit: 1;" y="83.318"/>
    <rect x="449.834" width="48.895" height="83.318" style="fill: rgb(5, 0, 0); stroke-miterlimit: 1;" y="83.318"/>
  </g>
  <g/>
  <g/>
  <path d="M 178.022 243.599 L 178.022 172.951 L 125.127 172.951 L 125.127 243.599 L 178.022 243.599 Z" style="fill: rgb(5, 0, 0); stroke-miterlimit: 1;"/>
  <path d="M 124.627 244.099 L 124.627 172.451 L 178.522 172.451 L 178.522 244.099 Z M 177.522 173.451 L 125.627 173.451 L 125.627 243.099 L 177.522 243.099 Z" style="fill: none;"/>
  <path d="M 373.602 243.599 L 373.602 172.951 L 320.707 172.951 L 320.707 243.599 L 373.602 243.599 Z" style="fill: rgb(5, 0, 0); stroke-miterlimit: 1;"/>
  <path d="M 320.207 244.099 L 320.207 172.451 L 374.102 172.451 L 374.102 244.099 Z M 373.102 173.451 L 321.207 173.451 L 321.207 243.099 L 373.102 243.099 Z" style="fill: none;"/>
  <path d="M 236.696 310.247 L 236.696 289.585 L 144.685 289.585 L 144.685 310.247 L 236.696 310.247 Z" style="fill: rgb(5, 0, 0); stroke-miterlimit: 1;"/>
  <path d="M 144.185 310.747 L 144.185 289.085 L 237.196 289.085 L 237.196 310.747 Z M 236.196 290.085 L 145.185 290.085 L 145.185 309.747 L 236.196 309.747 Z" style="fill: none;"/>
  <path d="M 197.58 326.909 L 197.58 306.247 L 144.685 306.247 L 144.685 326.909 L 197.58 326.909 Z" style="fill: rgb(5, 0, 0); stroke-miterlimit: 1;"/>
  <path d="M 144.185 327.409 L 144.185 305.747 L 198.08 305.747 L 198.08 327.409 Z M 197.08 306.747 L 145.185 306.747 L 145.185 326.409 L 197.08 326.409 Z" style="fill: none;"/>
  <path d="M 198.678 335.24 L 198.678 322.909 L 193.58 322.909 L 193.58 335.24 L 198.678 335.24 Z" style="fill: rgb(216, 216, 216); stroke-miterlimit: 1;"/>
  <path d="M 193.08 335.74 L 193.08 322.409 L 199.178 322.409 L 199.178 335.74 Z M 198.178 323.409 L 194.08 323.409 L 194.08 334.74 L 198.178 334.74 Z" style="fill: none;"/>
  <path d="M 197.58 351.902 L 197.58 322.909 L 183.801 322.909 L 183.801 351.902 L 197.58 351.902 Z" style="fill: rgb(5, 0, 0); stroke-miterlimit: 1;"/>
  <path d="M 183.301 352.402 L 183.301 322.409 L 198.08 322.409 L 198.08 352.402 Z M 197.08 323.409 L 184.301 323.409 L 184.301 351.402 L 197.08 351.402 Z" style="fill: none;"/>
  <path d="M 187.801 360.233 L 187.801 347.902 L 154.464 347.902 L 154.464 360.233 L 187.801 360.233 Z" style="fill: rgb(5, 0, 0); stroke-miterlimit: 1;"/>
  <path d="M 153.964 360.733 L 153.964 347.402 L 188.301 347.402 L 188.301 360.733 Z M 187.301 348.402 L 154.964 348.402 L 154.964 359.733 L 187.301 359.733 Z" style="fill: none;"/>
  <path d="M 236.696 360.233 L 236.696 347.902 L 193.58 347.902 L 193.58 360.233 L 236.696 360.233 Z" style="fill: rgb(5, 0, 0); stroke-miterlimit: 1;"/>
  <path d="M 193.08 360.733 L 193.08 347.402 L 237.196 347.402 L 237.196 360.733 Z M 236.196 348.402 L 194.08 348.402 L 194.08 359.733 L 236.196 359.733 Z" style="fill: none;"/>
  <path d="M 207.359 368.564 L 207.359 356.233 L 183.801 356.233 L 183.801 368.564 L 207.359 368.564 Z" style="fill: rgb(5, 0, 0); stroke-miterlimit: 1;"/>
  <path d="M 183.301 369.064 L 183.301 355.733 L 207.859 355.733 L 207.859 369.064 Z M 206.859 356.733 L 184.301 356.733 L 184.301 368.064 L 206.859 368.064 Z" style="fill: none;"/>
  <path d="M 2 326.909 L 2 131.296 L -31.337 131.296 L -31.337 326.909 L 2 326.909 Z" style="fill: rgb(5, 0, 0); stroke-miterlimit: 1;"/>
  <path d="M -31.837 327.409 L -31.837 130.796 L 2.5 130.796 L 2.5 327.409 Z M 1.5 131.796 L -30.837 131.796 L -30.837 326.409 L 1.5 326.409 Z" style="fill: none;"/>
  <path d="M 539.845 276.923 L 539.845 97.972 L 496.729 97.972 L 496.729 276.923 L 539.845 276.923 Z" style="fill: rgb(5, 0, 0); stroke-miterlimit: 1;"/>
  <path d="M 496.229 277.423 L 496.229 97.472 L 540.345 97.472 L 540.345 277.423 Z M 539.345 98.472 L 497.229 98.472 L 497.229 276.423 L 539.345 276.423 Z" style="fill: none;"/>
  <g/>
</svg>